<svg xmlns="http://www.w3.org/2000/svg" xml:space="preserve" style="fill-rule:evenodd;clip-rule:evenodd;stroke-linejoin:round;stroke-miterlimit:2" viewBox="0 0 800 800"><path d="M329.022 465.773c20.767-62.321-2.1-98.382-35.583-104.66-40.409-7.574-69.053 6.278-113.016 62.787-43.951 56.509-29.292 142.309 46.052 144.411 62.786 1.734 87.9-58.598 102.547-102.538m169.001-107.029c-39.76 16.734-47.97 44.415-27.203 106.725 14.647 43.951 39.749 104.295 102.549 102.55 75.345-2.077 89.99-87.878 46.04-144.411-43.953-56.497-81.612-81.6-121.386-64.864M227 219.488c.538-4.496.831-9.065.831-13.682 0-62.933-50.987-113.933-113.908-113.933C51.013 91.872 0 142.872 0 205.806c0 62.899 51.013 113.897 113.922 113.897 3.834 0 7.647-.183 11.384-.562 19.716-24.247 54.553-63.044 101.694-99.653M686.08 96.27c-62.91 0-113.922 50.988-113.922 113.91 0 4.653.317 9.222.856 13.706 47.128 36.597 81.978 75.419 101.669 99.653 3.762.367 7.548.563 11.397.563C749 324.102 800 273.114 800 210.181c0-62.923-51-113.911-113.92-113.911m-182.047 560.7c-5.949-2.393-12.705.513-15.086 6.45-1.528 3.836-3.567 6.952-6.011 9.589-3.653 3.971-8.367 6.902-13.925 8.918-5.534 2.015-11.875 3.017-18.323 3.017a65.2 65.2 0 0 1-15.832-1.966c-7.525-1.881-14.023-5.131-17.993-8.587-2.005-1.699-3.372-3.408-4.166-4.899-.781-1.503-1.088-2.725-1.1-4.081v-45.966c10.517-1.856 26.751-7.597 42.669-24.943 8.356-9.102 14.145-34.607-7.036-44.588-11.03-5.191-27.35-6.255-47.225-6.255-19.886 0-36.194 1.063-47.236 6.255-21.169 9.981-15.38 35.486-7.024 44.588 15.916 17.345 32.15 23.087 42.668 24.943v45.966a8 8 0 0 1-.477 2.65c-.55 1.602-1.734 3.494-3.847 5.472-3.103 3.006-8.22 6.011-14.378 8.087-6.169 2.114-13.316 3.322-20.4 3.322-8.588.025-16.98-1.808-23.588-5.337-3.31-1.785-6.218-3.947-8.66-6.597-2.444-2.638-4.46-5.753-6.01-9.589-2.381-5.936-9.125-8.844-15.075-6.45-5.948 2.37-8.831 9.112-6.45 15.075 2.566 6.425 6.181 12.056 10.53 16.734 6.523 7.036 14.584 11.91 23.051 14.964 8.489 3.053 17.419 4.385 26.202 4.385 7.378 0 14.647-.939 21.536-2.688 10.322-2.626 19.814-6.987 27.386-13.436.6-.512 1.1-1.148 1.673-1.686.013 0 .013.025.025.025 6.303 5.985 14.219 10.261 22.903 13.241 8.674 2.956 18.189 4.544 27.852 4.544 11.703-.011 23.722-2.333 34.497-8.063 5.375-2.858 10.419-6.595 14.769-11.286 4.348-4.68 7.964-10.309 10.542-16.734 2.37-5.961-.524-12.703-6.461-15.074" style="fill-rule:nonzero"/></svg>